<svg xmlns="http://www.w3.org/2000/svg" xmlns:xlink="http://www.w3.org/1999/xlink" version="1.1" width="256" height="256" viewBox="0 0 256 256" xml:space="preserve">
<g style="stroke: none; stroke-width: 0; stroke-dasharray: none; stroke-linecap: butt; stroke-linejoin: miter; stroke-miterlimit: 10; fill: none; fill-rule: nonzero; opacity: 1;" transform="translate(1.4065934065934016 1.4065934065934016) scale(2.81 2.81)">
	<path d="M 51.114 71.875 c -0.086 0 -0.173 -0.011 -0.26 -0.034 l -3.016 -0.808 c -0.267 -0.071 -0.492 -0.25 -0.623 -0.493 c -0.13 -0.244 -0.154 -0.53 -0.065 -0.792 c 4.67 -13.843 10.788 -22.068 22.135 -28.963 c -8.034 2.68 -16.134 8.183 -19.829 17.358 c -0.158 0.392 -0.512 0.654 -0.97 0.625 c -0.423 -0.018 -0.789 -0.3 -0.914 -0.704 c -3.309 -10.73 -0.882 -18.993 7.638 -26.002 c 4.851 -3.808 10.643 -5.05 15.752 -6.147 c 6.049 -1.298 11.272 -2.42 13.599 -7.225 c 0.181 -0.373 0.577 -0.601 0.985 -0.561 c 0.412 0.035 0.761 0.321 0.876 0.719 c 3.927 13.587 6.63 26.763 -3.29 38.605 c -7.407 7.61 -16.785 9.563 -27.931 5.863 c -1.326 2.521 -2.352 5.09 -3.126 7.831 C 51.951 71.587 51.551 71.875 51.114 71.875 z" style="stroke: none; stroke-width: 1; stroke-dasharray: none; stroke-linecap: butt; stroke-linejoin: miter; stroke-miterlimit: 10; fill: rgb(0,0,0); fill-rule: nonzero; opacity: 1;" transform=" matrix(1 0 0 1 0 0) " stroke-linecap="round"/>
	<path d="M 38.887 71.875 c -0.437 0 -0.837 -0.288 -0.962 -0.729 c -0.773 -2.739 -1.799 -5.31 -3.126 -7.831 c -11.146 3.701 -20.522 1.75 -27.881 -5.809 c -9.97 -11.898 -7.267 -25.074 -3.339 -38.66 c 0.115 -0.398 0.463 -0.684 0.876 -0.719 c 0.409 -0.031 0.804 0.188 0.984 0.561 c 2.326 4.806 7.55 5.927 13.599 7.225 c 5.109 1.097 10.901 2.339 15.733 6.133 c 8.538 7.023 10.965 15.286 7.656 26.016 c -0.125 0.404 -0.491 0.687 -0.914 0.704 c -0.418 0.029 -0.811 -0.233 -0.97 -0.625 c -3.696 -9.176 -11.795 -14.679 -19.831 -17.358 C 32.061 47.68 38.179 55.905 42.85 69.748 c 0.088 0.262 0.064 0.548 -0.066 0.792 c -0.13 0.243 -0.356 0.422 -0.623 0.493 l -3.015 0.808 C 39.06 71.864 38.972 71.875 38.887 71.875 z" style="stroke: none; stroke-width: 1; stroke-dasharray: none; stroke-linecap: butt; stroke-linejoin: miter; stroke-miterlimit: 10; fill: rgb(0,0,0); fill-rule: nonzero; opacity: 1;" transform=" matrix(1 0 0 1 0 0) " stroke-linecap="round"/>
</g>
</svg>